<svg width="170" height="40" viewBox="0 0 170 40" fill="none" xmlns="http://www.w3.org/2000/svg">
<circle cx="19" cy="20" r="16" fill="#2E74B5"/>
<path d="M9 13c3-1.5 6-.5 7.5 1.5s-1.5 3-.5 5-2.5 2.5-4.5 1.5-3.5-3-3.5-5 1-3 1-4z" fill="#4CA85B"/>
<path d="M22 22.5c2-1 5 0 6 2s-1 4-4 4-4.5-1.5-4-3.5 0-1.5 2-2.5z" fill="#4CA85B"/>
<path d="M24.5 9c2 0 3.5 1.5 3.2 3.2-.3 1.7-3 1.6-4 .6s-1.7-3.4.8-3.8z" fill="#4CA85B"/>
<circle cx="19" cy="20" r="16" stroke="#ffffff" stroke-opacity="0.4" stroke-width="0.8"/>
<ellipse cx="19" cy="20" rx="7" ry="16" stroke="#ffffff" stroke-opacity="0.35" stroke-width="0.8"/>
<path d="M4 15.5h30M3 20h32M5 24.5h28" stroke="#ffffff" stroke-opacity="0.35" stroke-width="0.8"/>
<text x="42" y="18.5" font-family="Arial,Helvetica,sans-serif" font-size="13" font-weight="800" fill="#111111">BLACKHATWORLD</text>
<text x="42" y="30" font-family="Arial,Helvetica,sans-serif" font-size="6.3" letter-spacing="1.4" fill="#7a7a7a">INTERNET MARKETING FORUM</text>
</svg>
